<svg width="1089" height="742" viewBox="0 0 1089 742" fill="none" xmlns="http://www.w3.org/2000/svg">
<rect width="1089" height="742" rx="45" fill="#2C2A2A"/>
<path fill-rule="evenodd" clip-rule="evenodd" d="M718 581C860.49 581 976 463.251 976 318C976 172.749 860.49 55 718 55C657.375 55 601.634 76.3154 557.596 111.995C508.022 80.9482 449.408 63 386.601 63C208.433 63 64 207.433 64 385.601C64 563.769 208.433 708.202 386.601 708.202C495.418 708.202 591.651 654.325 650.081 571.792C671.721 577.795 694.494 581 718 581ZM605.99 554.988C642.358 507.992 664 449.023 664 385C664 281.926 607.905 191.955 524.578 143.948C534.638 132.338 545.689 121.642 557.596 111.995C648.65 169.022 709.202 270.24 709.202 385.601C709.202 454.952 687.319 519.192 650.081 571.792C634.771 567.544 620.026 561.895 605.99 554.988ZM605.99 554.988C555.143 620.695 475.512 663 386 663C232.465 663 108 538.535 108 385C108 231.465 232.465 107 386 107C436.462 107 483.783 120.445 524.578 143.948C484.389 190.321 460 251.257 460 318C460 422.336 519.601 512.482 605.99 554.988Z" fill="#C4C4C4"/>
<path fill-rule="evenodd" clip-rule="evenodd" d="M717.829 85.4468L921.577 413.5H788.917L719.84 302.28L650.763 413.5H514.081L717.829 85.4468ZM650.763 413.5L601.422 492.943H838.257L788.917 413.5H650.763Z" fill="white"/>
<path fill-rule="evenodd" clip-rule="evenodd" d="M885.301 328.424H788.917L719.84 217.204L650.763 328.424H550.357L514.081 386.832H614.487L650.763 328.424H687.039L719.84 275.612L752.641 328.424H788.917L825.193 386.832H921.577L885.301 328.424ZM801.981 407.867L838.257 466.275H601.422L637.698 407.867H801.981Z" fill="#22B299"/>
<circle cx="289" cy="515" r="112" fill="#F2C215"/>
<rect x="605.112" y="460.191" width="16.1928" height="406.255" transform="rotate(59.6953 605.112 460.191)" fill="#C4C4C4"/>
</svg>
